<?xml version="1.0" standalone="no"?>
<!DOCTYPE svg PUBLIC "-//W3C//DTD SVG 20010904//EN"
 "http://www.w3.org/TR/2001/REC-SVG-20010904/DTD/svg10.dtd">
<svg version="1.0" xmlns="http://www.w3.org/2000/svg"
 width="512.000000pt" height="512.000000pt" viewBox="0 0 512.000000 512.000000"
 preserveAspectRatio="xMidYMid meet">

<g transform="translate(0.000000,512.000000) scale(0.100000,-0.100000)"
fill="#000000" stroke="none">
<path d="M1010 5107 c-51 -16 -123 -93 -139 -147 -11 -40 9 -293 178 -2235
170 -1949 191 -2212 191 -2394 0 -229 6 -252 77 -301 l37 -25 1194 -3 1195 -2
44 21 c29 14 52 35 68 63 24 42 25 48 25 242 -1 142 9 307 32 577 23 273 29
383 22 395 -18 28 -58 46 -87 38 -45 -11 -54 -51 -77 -321 -11 -137 -23 -274
-26 -302 l-6 -53 -254 0 c-268 0 -293 -4 -313 -47 -16 -34 -14 -47 10 -77 l20
-26 265 0 264 0 -2 -177 -3 -178 -1165 0 -1165 0 -3 178 -2 177 795 0 c782 0
795 0 815 20 25 25 26 71 1 101 l-19 24 -800 3 -800 2 -6 58 c-4 31 -87 988
-186 2125 -129 1485 -177 2074 -170 2088 6 10 19 23 30 29 12 7 407 10 1178
10 1118 0 1161 1 1183 19 32 26 32 86 0 112 -22 18 -64 19 -1195 18 -827 -1
-1181 -4 -1206 -12z"/>
<path d="M3636 5099 c-36 -28 -36 -80 0 -108 25 -20 40 -21 226 -21 l199 0 26
-26 c22 -23 25 -31 19 -77 -3 -29 -69 -783 -147 -1676 -140 -1619 -140 -1624
-121 -1650 15 -20 28 -26 57 -26 76 0 59 -133 220 1720 164 1881 158 1733 76
1815 -64 64 -93 70 -328 70 -187 0 -202 -1 -227 -21z"/>
<path d="M3270 3821 c-102 -22 -193 -57 -316 -123 -186 -99 -338 -138 -536
-138 -142 0 -174 6 -594 116 -178 46 -337 84 -354 84 -70 0 -144 -51 -176
-122 -18 -39 -17 -47 10 -361 26 -303 34 -352 60 -369 22 -15 76 -8 96 12 25
25 25 7 -6 363 -27 304 -26 327 11 327 6 0 159 -38 340 -85 412 -107 457 -115
615 -115 223 0 367 36 590 149 193 98 275 122 430 128 117 5 234 -7 251 -25 7
-7 -216 -2614 -226 -2639 -3 -10 -186 -13 -904 -13 -502 0 -902 4 -905 9 -3 5
-37 377 -76 827 -79 905 -72 866 -143 872 -43 4 -77 -24 -77 -64 0 -14 32
-391 70 -838 49 -563 75 -824 86 -854 11 -30 28 -51 57 -70 l41 -27 946 0 946
0 41 27 c29 19 46 40 57 70 11 30 49 432 132 1381 l116 1337 -24 48 c-28 56
-79 86 -178 102 -100 15 -283 11 -380 -9z"/>
<path d="M2765 2841 c-70 -18 -136 -72 -169 -138 -44 -88 -25 -201 47 -276
129 -132 351 -83 413 90 52 148 -53 311 -211 327 -28 3 -63 1 -80 -3z m128
-181 c58 -64 11 -160 -78 -160 -14 0 -39 13 -57 29 -27 24 -33 36 -33 69 0 94
104 132 168 62z"/>
<path d="M2260 2174 c-177 -65 -265 -253 -199 -429 25 -67 94 -141 164 -175
71 -35 208 -36 277 -1 63 31 121 88 155 153 24 46 28 65 28 138 0 71 -4 94
-26 140 -55 115 -153 181 -279 187 -52 2 -89 -2 -120 -13z m167 -145 c38 -14
83 -57 99 -96 29 -66 12 -145 -42 -195 -112 -104 -294 -26 -294 126 0 54 16
89 57 128 48 46 118 61 180 37z"/>
</g>
</svg>
