<?xml version="1.0" standalone="no"?>
<!DOCTYPE svg PUBLIC "-//W3C//DTD SVG 20010904//EN"
 "http://www.w3.org/TR/2001/REC-SVG-20010904/DTD/svg10.dtd">
<svg version="1.0" xmlns="http://www.w3.org/2000/svg"
 width="512.000000pt" height="512.000000pt" viewBox="0 0 512.000000 512.000000"
 preserveAspectRatio="xMidYMid meet">

<g transform="translate(0.000000,512.000000) scale(0.100000,-0.100000)"
fill="#000000" stroke="none">
<path d="M2285 5005 l-280 -114 -242 -1 c-296 0 -283 6 -283 -128 0 -83 2 -89
31 -125 31 -37 31 -38 12 -63 -10 -15 -28 -43 -40 -63 l-23 -36 0 -2124 0
-2125 55 -98 c31 -53 66 -104 78 -113 19 -13 135 -15 967 -15 832 0 948 2 967
15 12 9 47 60 78 113 l55 98 0 2125 0 2124 -23 36 c-12 20 -30 48 -40 63 -19
25 -19 26 12 63 29 36 31 42 31 123 0 139 71 124 -637 130 l-608 5 110 44
c111 44 155 76 155 112 0 27 -44 69 -72 68 -13 0 -149 -52 -303 -114z m1215
-267 c0 -7 -12 -25 -27 -40 l-27 -28 -886 0 -886 0 -27 28 c-15 15 -27 33 -27
40 0 9 218 12 940 12 722 0 940 -3 940 -12z m-23 -250 l43 -42 0 -2063 0
-2063 -960 0 -960 0 0 2062 0 2062 42 43 42 43 875 0 875 0 43 -42z m-19
-4326 c-3 -16 -54 -17 -898 -17 -844 0 -895 1 -898 18 -3 16 45 17 898 17 853
0 901 -1 898 -18z"/>
<path d="M2383 3842 c-11 -11 -91 -275 -208 -686 -179 -631 -189 -669 -175
-694 9 -14 26 -29 40 -33 14 -4 101 -7 194 -8 130 -1 167 -4 164 -13 -32 -88
-458 -1441 -458 -1455 0 -27 41 -63 71 -63 14 0 35 10 46 23 31 33 1216 1939
1221 1962 2 11 -6 33 -18 48 l-21 27 -215 0 c-118 0 -214 3 -214 8 0 4 69 185
153 402 85 217 157 407 160 421 5 19 1 34 -14 53 l-20 26 -345 0 c-318 0 -345
-1 -361 -18z m564 -134 c-3 -7 -75 -194 -161 -415 -161 -413 -166 -434 -129
-465 12 -9 74 -14 218 -18 l201 -5 -405 -652 c-223 -358 -407 -650 -409 -648
-2 2 67 224 153 494 111 348 155 499 151 517 -11 44 -56 54 -241 54 -91 0
-165 3 -165 7 0 4 73 263 162 575 l162 568 234 0 c183 0 233 -3 229 -12z"/>
</g>
</svg>
