<?xml version="1.0" standalone="no"?>
<!DOCTYPE svg PUBLIC "-//W3C//DTD SVG 20010904//EN"
 "http://www.w3.org/TR/2001/REC-SVG-20010904/DTD/svg10.dtd">
<svg version="1.0" xmlns="http://www.w3.org/2000/svg"
 width="512.000000pt" height="512.000000pt" viewBox="0 0 512.000000 512.000000"
 preserveAspectRatio="xMidYMid meet">

<g transform="translate(0.000000,512.000000) scale(0.100000,-0.100000)"
fill="#000000" stroke="none">
<path d="M4030 4941 c-105 -34 -175 -118 -187 -224 -6 -51 -9 -54 -232 -294
l-226 -242 -1413 -1 c-1572 0 -1454 5 -1509 -67 -29 -38 -42 -120 -25 -163 5
-14 447 -576 981 -1250 l971 -1224 0 -483 0 -483 -322 0 -321 0 -43 -25 c-44
-26 -84 -90 -84 -136 0 -71 49 -144 113 -168 19 -8 289 -11 830 -11 895 0 839
-4 899 70 62 78 40 194 -46 245 l-43 25 -321 0 -322 0 0 483 0 483 968 1221
c533 671 974 1235 982 1252 19 46 8 123 -23 164 -50 66 -56 67 -446 67 -193 0
-351 3 -351 6 0 3 52 62 116 130 102 108 121 124 149 124 42 0 128 44 161 83
81 96 85 231 9 331 -52 68 -187 113 -265 87z m-1002 -1139 c-18 -22 -107 -118
-198 -215 l-165 -177 -675 0 -675 0 -31 38 c-16 20 -96 117 -177 215 l-147
177 1051 0 1051 0 -34 -38z m981 -144 c-83 -101 -164 -198 -178 -216 l-27 -32
-334 2 -333 3 198 213 198 212 314 0 313 0 -151 -182z"/>
</g>
</svg>
