<?xml version="1.0" standalone="no"?>
<!DOCTYPE svg PUBLIC "-//W3C//DTD SVG 20010904//EN"
 "http://www.w3.org/TR/2001/REC-SVG-20010904/DTD/svg10.dtd">
<svg version="1.0" xmlns="http://www.w3.org/2000/svg"
 width="512.000000pt" height="512.000000pt" viewBox="0 0 512.000000 512.000000"
 preserveAspectRatio="xMidYMid meet">

<g transform="translate(0.000000,512.000000) scale(0.100000,-0.100000)"
fill="#000000" stroke="none">
<path d="M1793 4458 c-12 -6 -26 -22 -32 -37 -5 -14 -47 -280 -92 -591 -76
-528 -81 -573 -76 -685 6 -149 31 -247 97 -380 115 -234 322 -416 560 -491
l90 -29 0 -487 c0 -541 -1 -553 -69 -651 -42 -62 -72 -83 -295 -213 -104 -61
-199 -122 -210 -137 -16 -22 -17 -30 -7 -56 8 -18 24 -34 43 -40 48 -17 1505
-15 1538 2 32 16 47 58 33 90 -7 15 -81 63 -218 143 -233 134 -295 187 -337
291 l-23 58 0 499 0 499 68 23 c256 87 454 261 571 505 60 124 86 227 93 369
5 104 -2 170 -71 694 -43 319 -82 588 -87 598 -6 10 -21 23 -35 28 -36 14
-1512 12 -1541 -2z m1457 -133 c0 -2 29 -226 65 -497 36 -271 65 -502 65 -514
0 -20 -1 -20 -117 -7 -65 7 -217 29 -338 49 -121 19 -274 44 -340 54 -282 46
-512 46 -735 0 -52 -11 -96 -18 -98 -16 -4 5 128 918 135 929 5 8 1363 10
1363 2z m-735 -1046 c155 -22 466 -76 450 -78 -5 -1 -102 -17 -215 -36 -464
-80 -681 -84 -945 -17 -69 18 -70 18 -73 55 -3 34 -1 36 35 46 234 63 455 72
748 30z m869 -206 c-33 -195 -117 -357 -251 -485 -377 -358 -985 -285 -1272
154 -40 61 -96 190 -107 247 l-6 28 84 -18 c272 -60 501 -50 1053 45 175 31
413 64 468 65 l38 1 -7 -37z m-734 -1315 c0 -508 4 -546 60 -666 39 -84 138
-182 250 -247 l85 -50 -237 -3 c-130 -1 -346 -1 -479 0 l-242 3 94 55 c161 95
257 217 288 368 7 34 11 222 11 527 l0 475 85 0 85 0 0 -462z"/>
</g>
</svg>
